Coordinates
version=1
nRows=17
nColumns=38
inDegrees=no

Units are S.I. units (second, meters, Newtons, ...)
If the header above contains a line with 'inDegrees', this indicates whether rotational values are in degrees (yes) or radians (no).

endheader
time	pelvis_tilt	pelvis_list	pelvis_rotation	pelvis_tx	pelvis_ty	pelvis_tz	hip_flexion_r	hip_adduction_r	hip_rotation_r	knee_angle_r	ankle_angle_r	subtalar_angle_r	mtp_angle_r	hip_flexion_l	hip_adduction_l	hip_rotation_l	knee_angle_l	ankle_angle_l	subtalar_angle_l	mtp_angle_l	lumbar_extension	lumbar_bending	lumbar_rotation	arm_flex_r	arm_add_r	arm_rot_r	elbow_flex_r	pro_sup_r	wrist_flex_r	wrist_dev_r	arm_flex_l	arm_add_l	arm_rot_l	elbow_flex_l	pro_sup_l	wrist_flex_l	wrist_dev_l
4.82	2.93784	1.26245	-1.2724	0.734685	1.40336	0.960172	-0.31082	0.128431	-0.0497896	0.191047	-0.315642	0	0	0.0830878	-0.240205	-0.22471	1.03065	-0.305759	0	0	-0.216153	-0.0245308	0.260842	0.147626	-0.541045	0.0730405	1.51463	1.5708	0	0	0.811018	-0.232429	0.94212	1.01097	1.5708	0	0
4.83	2.94127	1.261	-1.27651	0.734738	1.40872	0.959964	-0.322185	0.128227	-0.0506442	0.184881	-0.313211	0	0	0.0913244	-0.23949	-0.237267	0.996537	-0.307546	0	0	-0.218376	-0.0266161	0.262424	0.150161	-0.542137	0.0735252	1.51292	1.5708	0	0	0.816757	-0.230787	0.94781	1.00693	1.5708	0	0
4.84	2.94348	1.2599	-1.27893	0.734679	1.41403	0.959648	-0.332876	0.128354	-0.051511	0.179058	-0.310762	0	0	0.0997593	-0.238097	-0.247401	0.961128	-0.310894	0	0	-0.220259	-0.0283067	0.263452	0.152682	-0.543446	0.0740974	1.51127	1.5708	0	0	0.822209	-0.229178	0.953273	1.00343	1.5708	0	0
4.85	2.94434	1.25946	-1.27947	0.734525	1.41929	0.959212	-0.34238	0.128809	-0.0521622	0.173841	-0.308748	0	0	0.108714	-0.236181	-0.254869	0.924706	-0.31509	0	0	-0.221435	-0.0296857	0.263927	0.154844	-0.544964	0.0747776	1.50981	1.5708	0	0	0.827274	-0.227706	0.958398	1.00038	1.5708	0	0
4.86	2.94396	1.25965	-1.27813	0.734322	1.42453	0.958673	-0.35061	0.129721	-0.0527887	0.169397	-0.307234	0	0	0.118174	-0.233648	-0.259107	0.887908	-0.318757	0	0	-0.222151	-0.030633	0.263687	0.156466	-0.546519	0.075389	1.50928	1.5708	0	0	0.831717	-0.226716	0.962659	0.998363	1.5708	0	0
4.87	2.91981	1.27862	-1.25508	0.733774	1.43063	0.957817	-0.336382	0.130992	-0.0461928	0.167839	-0.30632	0	0	0.147486	-0.229599	-0.258114	0.848545	-0.324155	0	0	-0.209803	-0.0173891	0.211009	0.219922	-0.530873	0.148414	1.48846	1.5708	0	0	0.695666	-0.23641	0.647694	1.14743	1.5708	0	0
4.88	2.94215	1.2614	-1.27296	0.733808	1.43494	0.957454	-0.363739	0.131854	-0.0541934	0.163696	-0.301456	0	0	0.13676	-0.226547	-0.258995	0.812831	-0.322288	0	0	-0.224032	-0.0293498	0.239952	0.188831	-0.545514	0.111489	1.49676	1.5708	0	0	0.805969	-0.243764	0.908004	1.02478	1.5708	0	0
4.89	2.94049	1.26199	-1.26926	0.733426	1.44005	0.956788	-0.369557	0.133262	-0.0547224	0.162569	-0.29801	0	0	0.144217	-0.222105	-0.254863	0.773613	-0.319889	0	0	-0.225096	-0.0302073	0.241822	0.184739	-0.546443	0.103434	1.50027	1.5708	0	0	0.815144	-0.240419	0.919515	1.02063	1.5708	0	0
4.9	2.93839	1.26308	-1.2649	0.733055	1.44514	0.95609	-0.374393	0.134831	-0.0551587	0.162348	-0.29402	0	0	0.150511	-0.216079	-0.246092	0.732004	-0.315037	0	0	-0.225756	-0.0312065	0.242129	0.182736	-0.547	0.0974592	1.50244	1.5708	0	0	0.822457	-0.238299	0.927958	1.01844	1.5708	0	0
4.91	2.93583	1.26479	-1.26003	0.732708	1.45022	0.955374	-0.377997	0.136408	-0.055243	0.163156	-0.289688	0	0	0.155466	-0.208139	-0.231516	0.687801	-0.30894	0	0	-0.225812	-0.0322463	0.24105	0.182698	-0.547268	0.0939804	1.50332	1.5708	0	0	0.827601	-0.237324	0.932807	1.01811	1.5708	0	0
4.92	2.93357	1.26691	-1.25555	0.732341	1.45527	0.954654	-0.38075	0.137678	-0.0553281	0.164973	-0.284925	0	0	0.158196	-0.197766	-0.209425	0.639858	-0.301769	0	0	-0.225288	-0.0333047	0.238958	0.184082	-0.547248	0.092589	1.50309	1.5708	0	0	0.832167	-0.2375	0.936738	1.0181	1.5708	0	0
4.93	2.93555	1.27103	-1.25423	0.73205	1.46008	0.954104	-0.381077	0.137618	-0.0556722	0.167703	-0.279832	0	0	0.152239	-0.173947	-0.149855	0.568753	-0.290319	0	0	-0.22407	-0.0362621	0.23388	0.187798	-0.545076	0.0931378	1.50106	1.5708	0	0	0.835292	-0.239867	0.938124	1.01983	1.5708	0	0
4.94	2.93557	1.27538	-1.25138	0.731737	1.46499	0.953481	-0.381047	0.137916	-0.055502	0.170394	-0.275721	0	0	0.143463	-0.151626	-0.0845027	0.495881	-0.282212	0	0	-0.222424	-0.0387549	0.228201	0.192413	-0.542807	0.0947893	1.49878	1.5708	0	0	0.835725	-0.242806	0.935097	1.02369	1.5708	0	0
4.95	2.93159	1.27766	-1.24602	0.731351	1.4702	0.952732	-0.383324	0.139153	-0.0551663	0.172636	-0.272217	0	0	0.138539	-0.140805	-0.0459509	0.441733	-0.279069	0	0	-0.221639	-0.0395542	0.224184	0.196619	-0.542033	0.0966408	1.49727	1.5708	0	0	0.835037	-0.245049	0.930377	1.02844	1.5708	0	0
4.96	2.92609	1.27766	-1.24029	0.73079	1.47573	0.951934	-0.388551	0.140664	-0.0554677	0.174184	-0.268931	0	0	0.138182	-0.140793	-0.0408511	0.40693	-0.279157	0	0	-0.221822	-0.0391457	0.222043	0.19975	-0.542872	0.0982373	1.49634	1.5708	0	0	0.835211	-0.246377	0.927561	1.0323	1.5708	0	0
4.97	2.92013	1.27725	-1.23441	0.730195	1.48133	0.95118	-0.394551	0.142387	-0.0551744	0.175455	-0.265257	0	0	0.137008	-0.141639	-0.0375012	0.374562	-0.280331	0	0	-0.222155	-0.0385506	0.220433	0.20222	-0.543966	0.0995557	1.49569	1.5708	0	0	0.835218	-0.247401	0.925132	1.03611	1.5708	0	0
4.98	2.91308	1.27677	-1.22771	0.729519	1.48696	0.950406	-0.400443	0.144366	-0.0540096	0.176824	-0.261577	0	0	0.1357	-0.143205	-0.0351042	0.345363	-0.281305	0	0	-0.222482	-0.0375089	0.219205	0.203964	-0.545331	0.100354	1.49562	1.5708	0	0	0.83473	-0.248184	0.922486	1.04024	1.5708	0	0
